<svg xmlns="http://www.w3.org/2000/svg" xmlns:xlink="http://www.w3.org/1999/xlink" viewBox="0 0 219.98304 27.43635">
  <defs>
    <style>
      .cls-1 {
        fill: #2f190e;
      }

      .cls-2 {
        fill: url(#linear-gradient);
      }
    </style>
    <linearGradient id="linear-gradient" x1="-9207.99393" y1="-1679.87999" x2="-9206.99393" y2="-1679.87999" gradientTransform="matrix(6.15088, 2.36526, -2.86821, 5.07232, 51815.65154, 30306.20827)" gradientUnits="userSpaceOnUse">
      <stop offset="0" stop-color="#a92580"/>
      <stop offset="1" stop-color="#f7bc00"/>
    </linearGradient>
  </defs>
  <title>Asset 1</title>
  <g id="Layer_2" data-name="Layer 2">
    <g id="Layer_1-2" data-name="Layer 1">
      <g id="e71c3939-abf0-4b7f-8309-a16780a1f261">
        <path class="cls-1" d="M66.93673,4.81027,64.222,16.5178,60.99813,4.81027H56.926L53.87181,16.5178,51.157,4.81027H46.40613l4.58121,17.81581h5.25991L59.13171,11.2579,61.8465,22.62608h5.25991L71.85729,4.81027Zm15.9494,10.68948a5.22345,5.22345,0,0,0,3.39349-5.09023A5.50487,5.50487,0,0,0,80.85,4.81027H72.87534V22.62608h4.58121V16.17845h1.018l4.24186,6.6173h5.09023Zm-2.71479-3.05414H77.45655V8.71278h2.71479a1.86642,1.86642,0,1,1,0,3.73283Zm9.16242,10.18047H93.915V4.81027H89.33376ZM108.507,4.81027H95.27236V8.71278H99.6839v13.9133h4.58121V8.71278h4.41153V4.81027Zm12.5559,3.90251V4.81027H110.034V22.62608h11.02884V18.72357h-6.44763V15.66943h5.42958V11.76692h-5.42958V8.71278ZM139.3877,12.785v3.56317h4.07219a4.56833,4.56833,0,0,1-4.07219,2.20576,4.63914,4.63914,0,0,1-4.75088-4.75088,4.63914,4.63914,0,0,1,4.75088-4.75088,4.79257,4.79257,0,0,1,4.24186,2.54511l3.90251-2.03609a8.91684,8.91684,0,0,0-8.14437-4.92056,9.16242,9.16242,0,1,0,9.16242,9.16242V12.785ZM161.106,15.49975a5.365,5.365,0,0,0,3.56316-5.09023,5.50487,5.50487,0,0,0-5.42958-5.59925h-7.9747V22.62608h4.58121V16.17845h1.018l4.24186,6.6173h5.09023Zm-2.71479-3.05414h-2.54512V8.71278h2.54512a1.86642,1.86642,0,1,1,0,3.73283Zm19.8519,10.18047h4.92056L176.71607,4.81027h-5.09023L165.1782,22.62608h4.92056l1.018-3.05414h6.278Zm-5.9386-6.787,2.03608-6.278,2.03609,6.278ZM197.077,4.81027V15.66943L189.1023,4.81027h-4.75088V22.62608h4.5812V11.76692l7.97469,10.85916h4.75089V4.81027Zm7.805,17.81581h6.10828a8.94322,8.94322,0,0,0,8.99275-8.99274,9.05231,9.05231,0,0,0-8.99275-8.99275H204.882Zm4.58122-3.90251V8.71278H211.16c2.54512,0,4.41154,2.20577,4.41154,4.92056,0,2.88446-1.86642,4.92055-4.41154,4.92055h-1.69674Z"/>
      </g>
      <g id="d4f4c582-4a34-43c7-838d-8f1bf60bf8fe">
        <path class="cls-2" d="M29.63941,0h.0816a1.20106,1.20106,0,0,1,1.10153,1.20353V2.38666h.34678a2.09808,2.09808,0,0,1,2.10107,2.10107v20.256a2.09808,2.09808,0,0,1-2.10107,2.10107H21.4187V26.804l-3.36579.63236h-.0612a1.20106,1.20106,0,0,1-1.10153-1.20353V3.427A1.22751,1.22751,0,0,1,18.1141,2.20307h.0408Zm.14279,24.00935V1.22393a.20659.20659,0,0,0-.12239-.18359l-1.32592.22438V9.28144c0,.32638,0,.612-.306.73436a.77785.77785,0,0,1-.75476-.102l-.0204-.0204-.06119-.06119-.0612-.0612c-.51-.55077-1.01994-1.10153-1.55031-1.6319-.204.22438-.408.42837-.612.65276L23.989,9.8322a.76049.76049,0,0,1-.83635.18359c-.306-.12239-.306-.408-.306-.73435V2.38666L18.1549,3.2434h-.0816a.20441.20441,0,0,0-.204.204V26.23282a.1784.1784,0,0,0,.12239.18359l11.44371-2.20307h.12239A.19889.19889,0,0,0,29.7822,24.00935ZM16.13543,3.427V26.21242A1.20106,1.20106,0,0,1,15.03389,27.416H14.9727l-3.121-.59157H2.10107A2.09808,2.09808,0,0,1,0,24.72331V4.48773A2.09808,2.09808,0,0,1,2.10107,2.38666h.102V1.20353A1.20106,1.20106,0,0,1,3.3046,0h.0816L14.9115,2.20307A1.22752,1.22752,0,0,1,16.13543,3.427ZM15.11549,26.21242V3.427a.20441.20441,0,0,0-.204-.204h-.18359L3.3454,1.04034a.17839.17839,0,0,0-.12239.18359V24.00935a.20441.20441,0,0,0,.204.204h.18359L14.99309,26.396A.2066.2066,0,0,0,15.11549,26.21242Z"/>
      </g>
    </g>
  </g>
</svg>
