<svg xmlns="http://www.w3.org/2000/svg" xmlns:xlink="http://www.w3.org/1999/xlink" viewBox="0 0 260 99.38"><defs><style>.cls-1{fill:#2f190e;}.cls-2{fill:url(#linear-gradient);}</style><linearGradient id="linear-gradient" x1="-1586.63" y1="434.34" x2="-1585.63" y2="434.34" gradientTransform="matrix(43.79, 16.84, 20.42, -36.11, 60713.86, 42412.82)" gradientUnits="userSpaceOnUse"><stop offset="0" stop-color="#a92580"/><stop offset="1" stop-color="#f7bc00"/></linearGradient></defs><title>Asset 1</title><g id="Layer_2" data-name="Layer 2"><g id="Layer_1-2" data-name="Layer 1"><g id="_599fe90a-c9c0-4acf-870f-4b9707a81411" data-name="599fe90a-c9c0-4acf-870f-4b9707a81411"><path class="cls-1" d="M31,58.2,26.89,75.75,22.17,58.2H16L11.3,75.75,7.21,58.2H0L6.93,84.86h8l4.24-17,4.17,17h7.94l7-26.66ZM54.75,74.3A8,8,0,0,0,60,66.61a8.16,8.16,0,0,0-8.17-8.41H39.92V84.86H46.7V75.09h1.57l6.22,9.77h7.65Zm-4.09-4.67h-4V64.12h4a2.76,2.76,0,1,1,0,5.51ZM64.4,84.86h6.8V58.2H64.4ZM93.24,58.2H73.41v5.92h6.53V84.86h6.75V64.12h6.55ZM112,64.12V58.2H95.5V84.86H112V79h-9.72V74.48h8.2V68.61h-8.2V64.12Zm27.33,5.94v5.21h6.09a7,7,0,0,1-6,3.3,7,7,0,1,1,6.3-10.29l5.86-3a13.63,13.63,0,1,0,1.53,6.22V70.06Zm32.48,4.24a8,8,0,0,0,5.2-7.69,8.17,8.17,0,0,0-8.18-8.41H157V84.86h6.8V75.09h1.55l6.22,9.77h7.64Zm-4.09-4.67h-3.94V64.12h3.94a2.76,2.76,0,1,1,0,5.51Zm29.86,15.23h7.29L195.27,58.2h-7.61L178,84.86h7.31l1.48-4.67h9.34Zm-9.07-10.18,3-9.42,3,9.42Zm37.2-16.48V74.5l-12-16.3H206.6V84.86h6.8V68.51l12,16.35h7.16V58.2Zm11.69,26.66h9.24a13.33,13.33,0,1,0,0-26.66h-9.24Zm6.8-5.91V64.12h2.44c3.71,0,6.58,3.25,6.58,7.41S250.38,79,246.67,79Z"/></g><g id="_971a61f7-4b1c-4672-9e5d-67183b08088d" data-name="971a61f7-4b1c-4672-9e5d-67183b08088d"><path class="cls-2" d="M148.89,0H149a1.74,1.74,0,0,1,1.6,1.75V3.47h.51a3,3,0,0,1,3,3V35.94a3,3,0,0,1-3,3.05H137v-.06l-4.89.92H132a1.74,1.74,0,0,1-1.6-1.75V5a1.78,1.78,0,0,1,1.78-1.78h.06Zm.2,34.87V1.78a.31.31,0,0,0-.17-.27L147,1.84V13.48c0,.47,0,.89-.44,1.07a1.15,1.15,0,0,1-1.1-.15l0,0-.09-.09-.09-.09c-.74-.8-1.48-1.6-2.25-2.37l-.89.95-1.42,1.51a1.11,1.11,0,0,1-1.21.27c-.45-.18-.45-.6-.45-1.07v-10l-6.81,1.24h-.12a.3.3,0,0,0-.3.3V38.1a.26.26,0,0,0,.18.27l16.62-3.2h.18A.28.28,0,0,0,149.09,34.87ZM129.27,5V38.07a1.74,1.74,0,0,1-1.6,1.75h-.08L123.05,39H108.89a3,3,0,0,1-3-3.05V6.52a3,3,0,0,1,3-3H109V1.75A1.74,1.74,0,0,1,110.64,0h.12L127.5,3.2A1.78,1.78,0,0,1,129.27,5Zm-1.48,33.09V5a.3.3,0,0,0-.29-.3h-.27L110.7,1.51a.26.26,0,0,0-.18.27V34.87a.3.3,0,0,0,.3.3h.26l16.54,3.17A.31.31,0,0,0,127.79,38.07Z"/></g><g id="cabfd325-634c-4242-bc11-061a862505f1"><path class="cls-1" d="M33,97.77h1.41l1,1.56h.55l-1.07-1.64a1.1,1.1,0,0,0,1-1.15,1.24,1.24,0,0,0-1.37-1.27H32.5v4.06H33Zm0-2.06h1.43c.58,0,1,.31,1,.83s-.55.8-1,.8H33Zm9.7,0v-.44h-3v4.06h3v-.44H40.13V97.52h2.26v-.45H40.13V95.71Zm5.63-.44h-.58L46,99.33h.5l.5-1.18h2l.5,1.18H50Zm-1.12,2.46.83-2,.83,2Zm8.13-2.46H53.59v4.06H55.3a2,2,0,0,0,0-4.06Zm0,3.63H54.05V95.71h1.23a1.6,1.6,0,0,1,0,3.19Zm11.89-3.63h-.58l-1.72,4.06h.51l.49-1.18h2l.5,1.18h.51Zm-1.12,2.46.83-2,.83,2Zm9.46-2.46v3.42L73,95.27h-.53v4.06h.46V95.9l2.51,3.43H76V95.27Zm6.23,0H80v4.06h1.71a2,2,0,0,0,0-4.06Zm0,3.63H80.49V95.71h1.24a1.61,1.61,0,0,1,0,3.19Zm12.5-3,1.1,3.41h.52l1.26-4.06h-.48l-1,3.41-1.09-3.41H94l-1.1,3.41-1-3.41h-.48l1.26,4.06h.52Zm7,1.85h1.41l1,1.56h.55l-1.07-1.64a1.11,1.11,0,0,0,1-1.15,1.23,1.23,0,0,0-1.36-1.27h-2v4.06h.46Zm0-2.06h1.43c.58,0,1,.31,1,.83s-.55.8-1,.8h-1.4Zm7.17-.44h-.46v4.06h.46Zm6.94,0H112v.44h1.42v3.62h.46V95.71h1.41Zm6.64.44v-.44h-3v4.06h3v-.44h-2.53V97.52h2.25v-.45h-2.25V95.71Zm10.62.21,1.09,3.41h.52l1.27-4.06H135l-1,3.41-1.09-3.41h-.52l-1.1,3.41-1-3.41h-.48l1.26,4.06h.52Zm7-.65h-.46v4.06h.46Zm6.94,0h-3.29v.44h1.41v3.62H145V95.71h1.42Zm6.47,0v1.8h-2.36v-1.8h-.46v4.06h.46V97.52h2.36v1.81h.46V95.27Zm10.63,3.66a1.63,1.63,0,0,1,0-3.26,1.33,1.33,0,0,1,1.32.81h.49a1.87,1.87,0,0,0-1.84-1.26,2.08,2.08,0,0,0,0,4.16,1.87,1.87,0,0,0,1.84-1.26h-.49A1.33,1.33,0,0,1,163.56,98.93Zm7.33-3.71A2.08,2.08,0,1,0,173,97.3,2,2,0,0,0,170.89,95.22Zm0,3.71a1.63,1.63,0,1,1,1.6-1.63A1.55,1.55,0,0,1,170.89,98.93Zm8.9-3.66v3.42l-2.51-3.42h-.53v4.06h.46V95.9l2.51,3.43h.53V95.27Zm7.46.44v-.44h-2.93v4.06h.46V97.57H187v-.45h-2.19V95.71Zm4.17-.44H191v4.06h.46Zm5.76,0h-1.7v4.06h1.7a2,2,0,0,0,0-4.06Zm0,3.63h-1.23V95.71h1.23a1.61,1.61,0,0,1,0,3.19Zm8.67-3.19v-.44h-3v4.06h3v-.44h-2.52V97.52h2.26v-.45h-2.26V95.71Zm6.85-.44v3.42l-2.51-3.42h-.53v4.06h.46V95.9l2.51,3.43h.53V95.27ZM219,98.93a1.63,1.63,0,0,1,0-3.26,1.32,1.32,0,0,1,1.32.81h.49a1.87,1.87,0,0,0-1.84-1.26,2.08,2.08,0,0,0,0,4.16,1.87,1.87,0,0,0,1.84-1.26h-.49A1.32,1.32,0,0,1,219,98.93Zm8.55-3.22v-.44h-3v4.06h3v-.44H225V97.52h2.26v-.45H225V95.71Z"/></g></g></g></svg>