<svg data-v-29081953="" xmlns="http://www.w3.org/2000/svg" viewBox="0 0 300 300"><!----><defs data-v-29081953=""><!----></defs><rect data-v-29081953="" fill="#FBF3EF" x="0" y="0" width="300px" height="300px" class="logo-background-square"></rect><defs data-v-29081953=""><!----></defs><g data-v-29081953="" id="599fe90a-c9c0-4acf-870f-4b9707a81411" fill="#2F190E" transform="matrix(2.539310494675966,0,0,2.539310494675966,20.711006941536365,153.18094441650695)"><path d="M11.94 2.10L10.31 9.01L8.45 2.10L6.02 2.10L4.17 9.01L2.56 2.10L-0.28 2.10L2.45 12.60L5.58 12.60L7.25 5.92L8.89 12.60L12.02 12.60L14.77 2.10ZM21.28 8.44C22.49 8.02 23.33 6.84 23.33 5.41C23.33 3.59 21.98 2.10 20.11 2.10L15.44 2.10L15.44 12.60L18.11 12.60L18.11 8.75L18.73 8.75L21.18 12.60L24.19 12.60ZM19.67 6.60L18.11 6.60L18.11 4.43L19.67 4.43C20.30 4.43 20.76 4.88 20.76 5.51C20.76 6.14 20.30 6.60 19.67 6.60ZM25.08 12.60L27.76 12.60L27.76 2.10L25.08 2.10ZM36.44 2.10L28.63 2.10L28.63 4.43L31.20 4.43L31.20 12.60L33.86 12.60L33.86 4.43L36.44 4.43ZM43.84 4.43L43.84 2.10L37.33 2.10L37.33 12.60L43.84 12.60L43.84 10.27L40.01 10.27L40.01 8.51L43.24 8.51L43.24 6.20L40.01 6.20L40.01 4.43ZM54.60 6.77L54.60 8.82L57.00 8.82C56.51 9.61 55.65 10.12 54.62 10.12C53.03 10.12 51.84 8.94 51.84 7.35C51.84 5.76 53.03 4.59 54.62 4.59C55.74 4.59 56.65 5.16 57.10 6.07L59.41 4.90C58.52 3.15 56.70 1.96 54.62 1.96C51.63 1.96 49.23 4.38 49.23 7.35C49.23 10.33 51.63 12.74 54.62 12.74C57.59 12.74 60.01 10.33 60.01 7.35L60.01 6.77ZM67.39 8.44C68.60 8.02 69.44 6.84 69.44 5.41C69.44 3.59 68.09 2.10 66.22 2.10L61.55 2.10L61.55 12.60L64.23 12.60L64.23 8.75L64.84 8.75L67.29 12.60L70.30 12.60ZM65.78 6.60L64.23 6.60L64.23 4.43L65.78 4.43C66.41 4.43 66.87 4.88 66.87 5.51C66.87 6.14 66.41 6.60 65.78 6.60ZM77.54 12.60L80.41 12.60L76.62 2.10L73.62 2.10L69.83 12.60L72.71 12.60L73.29 10.76L76.97 10.76ZM73.97 8.59L75.13 4.88L76.30 8.59ZM88.62 2.10L88.62 8.52L83.88 2.10L81.08 2.10L81.08 12.60L83.76 12.60L83.76 6.16L88.48 12.60L91.30 12.60L91.30 2.10ZM93.22 12.60L96.86 12.60C99.75 12.60 102.11 10.26 102.11 7.35C102.11 4.45 99.75 2.10 96.86 2.10L93.22 2.10ZM95.90 10.27L95.90 4.43L96.86 4.43C98.32 4.43 99.45 5.71 99.45 7.35C99.45 9.00 98.32 10.27 96.86 10.27Z"></path></g><defs data-v-29081953=""><linearGradient data-v-29081953="" gradientTransform="rotate(25)" id="d96826ae-d86c-4c36-b6b4-de189dfa839e" x1="0%" y1="0%" x2="100%" y2="0%"><stop data-v-29081953="" offset="0%" stop-color="#A92580" stop-opacity="1"></stop><stop data-v-29081953="" offset="100%" stop-color="#F7BC00" stop-opacity="1"></stop></linearGradient></defs><g data-v-29081953="" id="971a61f7-4b1c-4672-9e5d-67183b08088d" stroke="none" fill="url(#d96826ae-d86c-4c36-b6b4-de189dfa839e)" transform="matrix(0.29625729344384366,0,0,0.29625729344384366,124.38855845095117,90.32751157913043)"><style></style><path d="M150.2 33.7h.4c3.1.3 5.4 2.8 5.4 5.9v5.8h1.7c5.7 0 10.3 4.6 10.3 10.3V155c0 5.7-4.6 10.3-10.3 10.3h-47.8v-.2l-16.5 3.1h-.3c-3.1-.3-5.4-2.8-5.4-5.9V50.5c0-3.3 2.7-6 6-6h.2l56.3-10.8zm.7 117.7V39.7c0-.4-.3-.8-.6-.9l-6.5 1.1v39.3c0 1.6 0 3-1.5 3.6-1.2.5-2.6.3-3.7-.5l-.1-.1-.3-.3-.3-.3c-2.5-2.7-5-5.4-7.6-8-1 1.1-2 2.1-3 3.2l-4.8 5.1c-1.1 1.1-2.7 1.5-4.1.9-1.5-.6-1.5-2-1.5-3.6V45.4l-23 4.2h-.4c-.5 0-1 .4-1 1v111.7c0 .4.2.8.6.9l56.1-10.8h.6c.7 0 1.1-.4 1.1-1zM84 50.5v111.7c0 3.1-2.3 5.6-5.4 5.9h-.3L63 165.2H15.2c-5.7 0-10.3-4.6-10.3-10.3V55.7c0-5.7 4.6-10.3 10.3-10.3h.5v-5.8c0-3.1 2.3-5.6 5.4-5.9h.4L78 44.5c3.3 0 6 2.7 6 6zm-5 111.7V50.5c0-.5-.4-1-1-1h-.9L21.3 38.8c-.4.1-.6.5-.6.9v111.7c0 .5.4 1 1 1h.9l55.8 10.7c.3-.1.6-.5.6-.9z"></path></g><defs data-v-29081953=""><!----></defs><g data-v-29081953="" id="cabfd325-634c-4242-bc11-061a862505f1" fill="#2F190E" transform="matrix(0.4380250757181174,0,0,0.4380250757181174,52.00503166652718,194.611906920242)"><path d="M2.18 7.92L5.40 7.92L7.64 11.48L8.89 11.48L6.45 7.74C7.49 7.50 8.69 6.90 8.69 5.11C8.69 3.35 7.48 2.21 5.57 2.21L1.13 2.21L1.13 11.48L2.18 11.48ZM2.18 3.21L5.45 3.21C6.76 3.21 7.64 3.93 7.64 5.11C7.64 6.55 6.38 6.93 5.39 6.93L2.18 6.93ZM24.32 3.22L24.32 2.21L17.50 2.21L17.50 11.48L24.32 11.48L24.32 10.47L18.55 10.47L18.55 7.35L23.70 7.35L23.70 6.33L18.55 6.33L18.55 3.22ZM37.17 2.21L35.85 2.21L31.92 11.48L33.08 11.48L34.22 8.79L38.81 8.79L39.94 11.48L41.10 11.48ZM34.62 7.83L36.51 3.30L38.40 7.83ZM53.19 2.21L49.28 2.21L49.28 11.48L53.19 11.48C55.40 11.48 57.44 9.74 57.44 6.85C57.44 3.95 55.40 2.21 53.19 2.21ZM53.14 10.49L50.33 10.49L50.33 3.21L53.14 3.21C55.12 3.21 56.39 4.86 56.39 6.85C56.39 8.83 55.12 10.49 53.14 10.49ZM80.28 2.21L78.96 2.21L75.03 11.48L76.19 11.48L77.32 8.79L81.91 8.79L83.05 11.48L84.21 11.48ZM77.73 7.83L79.62 3.30L81.51 7.83ZM99.33 2.21L99.33 10.01L93.60 2.21L92.39 2.21L92.39 11.48L93.44 11.48L93.44 3.65L99.16 11.48L100.38 11.48L100.38 2.21ZM113.55 2.21L109.65 2.21L109.65 11.48L113.55 11.48C115.77 11.48 117.81 9.74 117.81 6.85C117.81 3.95 115.77 2.21 113.55 2.21ZM113.51 10.49L110.70 10.49L110.70 3.21L113.51 3.21C115.49 3.21 116.76 4.86 116.76 6.85C116.76 8.83 115.49 10.49 113.51 10.49ZM142.06 3.70L144.56 11.48L145.75 11.48L148.64 2.21L147.53 2.21L145.15 10.00L142.66 2.21L141.46 2.21L138.96 10.00L136.58 2.21L135.48 2.21L138.36 11.48L139.55 11.48ZM157.95 7.92L161.17 7.92L163.41 11.48L164.65 11.48L162.22 7.74C163.25 7.50 164.46 6.90 164.46 5.11C164.46 3.35 163.24 2.21 161.34 2.21L156.90 2.21L156.90 11.48L157.95 11.48ZM157.95 3.21L161.21 3.21C162.53 3.21 163.41 3.93 163.41 5.11C163.41 6.55 162.15 6.93 161.15 6.93L157.95 6.93ZM174.31 2.21L173.26 2.21L173.26 11.48L174.31 11.48ZM190.16 2.21L182.64 2.21L182.64 3.22L185.88 3.22L185.88 11.48L186.93 11.48L186.93 3.22L190.16 3.22ZM205.31 3.22L205.31 2.21L198.49 2.21L198.49 11.48L205.31 11.48L205.31 10.47L199.54 10.47L199.54 7.35L204.69 7.35L204.69 6.33L199.54 6.33L199.54 3.22ZM229.56 3.70L232.06 11.48L233.25 11.48L236.14 2.21L235.03 2.21L232.65 10.00L230.16 2.21L228.96 2.21L226.46 10.00L224.08 2.21L222.98 2.21L225.86 11.48L227.05 11.48ZM245.45 2.21L244.40 2.21L244.40 11.48L245.45 11.48ZM261.30 2.21L253.78 2.21L253.78 3.22L257.01 3.22L257.01 11.48L258.06 11.48L258.06 3.22L261.30 3.22ZM276.07 2.21L276.07 6.33L270.68 6.33L270.68 2.21L269.63 2.21L269.63 11.48L270.68 11.48L270.68 7.35L276.07 7.35L276.07 11.48L277.12 11.48L277.12 2.21ZM300.34 10.57C298.09 10.57 296.83 8.93 296.83 6.85C296.83 4.76 298.09 3.12 300.34 3.12C301.87 3.12 302.88 3.85 303.35 4.98L304.46 4.98C303.87 3.29 302.36 2.10 300.26 2.10C297.47 2.10 295.78 4.21 295.78 6.85C295.78 9.48 297.47 11.59 300.26 11.59C302.36 11.59 303.87 10.40 304.46 8.71L303.35 8.71C302.88 9.84 301.87 10.57 300.34 10.57ZM317.07 2.10C314.26 2.10 312.37 4.21 312.37 6.85C312.37 9.48 314.26 11.59 317.07 11.59C319.89 11.59 321.78 9.48 321.78 6.85C321.78 4.21 319.89 2.10 317.07 2.10ZM317.07 10.57C314.82 10.57 313.42 8.93 313.42 6.85C313.42 4.76 314.82 3.12 317.07 3.12C319.33 3.12 320.73 4.76 320.73 6.85C320.73 8.93 319.33 10.57 317.07 10.57ZM337.40 2.21L337.40 10.01L331.67 2.21L330.46 2.21L330.46 11.48L331.51 11.48L331.51 3.65L337.23 11.48L338.45 11.48L338.45 2.21ZM354.41 3.22L354.41 2.21L347.72 2.21L347.72 11.48L348.77 11.48L348.77 7.46L353.79 7.46L353.79 6.44L348.77 6.44L348.77 3.22ZM363.93 2.21L362.88 2.21L362.88 11.48L363.93 11.48ZM377.10 2.21L373.20 2.21L373.20 11.48L377.10 11.48C379.32 11.48 381.36 9.74 381.36 6.85C381.36 3.95 379.32 2.21 377.10 2.21ZM377.06 10.49L374.25 10.49L374.25 3.21L377.06 3.21C379.04 3.21 380.31 4.86 380.31 6.85C380.31 8.83 379.04 10.49 377.06 10.49ZM396.87 3.22L396.87 2.21L390.05 2.21L390.05 11.48L396.87 11.48L396.87 10.47L391.10 10.47L391.10 7.35L396.26 7.35L396.26 6.33L391.10 6.33L391.10 3.22ZM412.51 2.21L412.51 10.01L406.78 2.21L405.57 2.21L405.57 11.48L406.62 11.48L406.62 3.65L412.34 11.48L413.56 11.48L413.56 2.21ZM426.80 10.57C424.55 10.57 423.29 8.93 423.29 6.85C423.29 4.76 424.55 3.12 426.80 3.12C428.33 3.12 429.34 3.85 429.81 4.98L430.92 4.98C430.33 3.29 428.82 2.10 426.72 2.10C423.93 2.10 422.24 4.21 422.24 6.85C422.24 9.48 423.93 11.59 426.72 11.59C428.82 11.59 430.33 10.40 430.92 8.71L429.81 8.71C429.34 9.84 428.33 10.57 426.80 10.57ZM446.31 3.22L446.31 2.21L439.49 2.21L439.49 11.48L446.31 11.48L446.31 10.47L440.54 10.47L440.54 7.35L445.69 7.35L445.69 6.33L440.54 6.33L440.54 3.22Z"></path></g></svg>