<?xml version="1.0" encoding="utf-8"?>
<svg width="1204px" height="224px" viewBox="0 0 1204 224" version="1.1" xmlns:xlink="http://www.w3.org/1999/xlink" xmlns="http://www.w3.org/2000/svg">
  <desc>Created with Lunacy</desc>
  <defs>
    <linearGradient x1="0.5" y1="0" x2="0.5" y2="1" id="gradient_1">
      <stop offset="0" stop-color="#20FBA2" />
      <stop offset="1" stop-color="#349AEE" />
    </linearGradient>
    <rect width="1204" height="224" id="artboard_1" />
    <clipPath id="clip_1">
      <use xlink:href="#artboard_1" clip-rule="evenodd" />
    </clipPath>
  </defs>
  <g id="HD" clip-path="url(#clip_1)">
    <use xlink:href="#artboard_1" stroke="none" fill="#FFFFFF" />
    <path d="M20.4584 177.219L112.217 8.78065C114.858 3.93123 119.142 3.93123 121.783 8.78065L213.542 177.219C216.183 182.069 213.848 186 208.326 186L25.674 186C20.1517 186 17.8166 182.069 20.4584 177.219Z" transform="translate(-11 2)" id="Polygon" fill="url(#gradient_1)" stroke="none" />
    <path d="M15.7399 119.49L76.679 8.76003C79.3416 3.922 83.6584 3.922 86.321 8.76003L147.26 119.49C149.923 124.328 147.604 128.25 142.082 128.25L20.9179 128.25C15.3956 128.25 13.0774 124.328 15.7399 119.49Z" transform="translate(25 86.00003)" id="Polygon-2" fill="url(#gradient_1)" stroke="none" />
    <g id="WRITEGRAND" transform="translate(223 47)">
      <g id="WRITE" fill="#3C3C3C">
        <path d="M147.6 36.024L121.968 36.024L105.552 103.848L105.12 103.848L86.832 36.024L61.2 36.024L43.056 103.848L42.624 103.848L26.496 36.024L0 36.024L28.944 137.976L53.424 137.976L73.584 69L74.016 69L94.176 137.976L118.512 137.976L147.6 36.024ZM241.488 137.976L214.848 94.344C227.952 90.312 236.016 80.52 236.016 66.84C236.016 43.512 216.576 36.024 196.992 36.024L158.112 36.024L158.112 137.976L182.304 137.976L182.304 97.512L190.656 97.512L212.688 137.976L241.488 137.976ZM278.352 36.024L278.352 137.976L253.584 137.976L253.584 36.024L278.352 36.024ZM371.808 57.048L371.808 36.024L289.584 36.024L289.584 57.048L318.384 57.048L318.384 137.976L343.008 137.976L343.008 57.048L371.808 57.048ZM454.176 116.952L454.176 137.976L383.04 137.976L383.04 36.024L451.584 36.024L451.584 56.904L406.8 56.904L406.8 76.056L449.136 76.056L449.136 95.784L406.8 95.784L406.8 116.952L454.176 116.952ZM211.68 67.272C211.68 77.64 201.744 79.656 193.824 79.656L182.16 79.656L182.16 55.896L195.264 55.896C202.608 55.896 211.68 57.768 211.68 67.272Z" />
      </g>
      <g id="GRAND" fill="#3C3C3C">
        <path d="M558 47.112C549.36 38.616 537.264 33.432 521.136 33.432C490.752 33.432 468 56.04 468 87C468 117.96 490.32 140.568 521.136 140.568C534.96 140.568 548.064 137.256 559.152 130.632L559.152 84.696L525.024 84.696L525.024 93.768L548.784 93.768L548.784 124.728C542.88 128.616 532.8 131.352 521.28 131.352C495.072 131.352 478.944 110.76 478.944 87C478.944 63.24 495.072 42.504 521.28 42.504C533.952 42.504 543.744 46.824 550.8 54.312L558 47.112ZM596.016 90.312L613.296 90.312L641.52 137.976L654.192 137.976L624.384 89.448C639.216 87.864 650.448 78.36 650.448 63.24C650.448 43.368 635.76 36.024 615.6 36.024L585.648 36.024L585.648 137.976L596.016 137.976L596.016 90.312ZM746.208 137.976L734.976 111.192L682.272 111.192L671.184 137.976L659.808 137.976L703.872 36.024L713.952 36.024L757.728 137.976L746.208 137.976ZM785.664 36.024L772.704 36.024L772.704 137.976L783.072 137.976L783.072 50.28L783.36 50.28L842.688 137.976L855.648 137.976L855.648 36.024L845.28 36.024L845.28 122.856L844.992 122.856L785.664 36.024ZM916.56 137.976L882.72 137.976L882.72 36.024L916.56 36.024C942.048 36.024 970.128 53.016 970.128 87C970.128 120.984 942.048 137.976 916.56 137.976ZM596.016 44.952L614.448 44.952C629.856 44.952 640.08 49.848 640.08 63.24C640.08 75.336 630.576 81.384 614.016 81.384L596.016 81.384L596.016 44.952ZM913.68 45.24L893.088 45.24L893.088 128.76L913.68 128.76C944.352 128.76 959.184 108.024 959.184 87C959.184 65.976 944.352 45.24 913.68 45.24ZM731.088 101.688L708.624 47.544L686.16 101.688L731.088 101.688Z" />
      </g>
    </g>
  </g>
</svg>