<?xml version="1.0" encoding="utf-8"?>
<svg width="766px" height="104px" viewBox="0 0 766 104" version="1.1" xmlns:xlink="http://www.w3.org/1999/xlink" xmlns="http://www.w3.org/2000/svg">
  <desc>Created with Lunacy</desc>
  <defs>
    <rect width="766" height="104" id="artboard_1" />
    <clipPath id="clip_1">
      <use xlink:href="#artboard_1" clip-rule="evenodd" />
    </clipPath>
  </defs>
  <g id="Custom-size" clip-path="url(#clip_1)">
    <use xlink:href="#artboard_1" stroke="none" fill="#FFFFFF" />
    <g id="WRITE-GRAND" fill="#3C3C3C" transform="translate(4 -11)">
      <path d="M432.465 100.096Q435.27 98.9407 437.36 97.7307L437.36 72.5407Q440 71.9907 441.54 71.3307Q443.08 70.6707 444.18 69.9007L444.18 66.7107L417.23 66.7107L417.23 69.9007Q419.76 70.7807 422.345 71.5507Q424.93 72.3207 427.79 72.5407L427.79 94.7607Q427.352 95.2007 426.199 95.8607Q425.047 96.5207 423.292 97.1257Q421.537 97.7307 419.452 98.1707Q417.367 98.6107 415.174 98.6107Q409.25 98.6107 404.149 96.1907Q399.047 93.7707 395.263 89.3157Q391.478 84.8607 389.339 78.5907Q387.2 72.3207 387.2 64.5107Q387.2 55.8207 389.393 49.3857Q391.586 42.9507 395.261 38.7157Q398.936 34.4807 403.87 32.4457Q408.805 30.4107 414.289 30.4107Q417.031 30.4107 419.882 30.6307Q422.733 30.8507 423.94 31.5107L429.66 47.3507L432.52 47.3507Q432.85 45.3707 433.18 42.7857Q433.51 40.2007 433.73 37.5607Q433.95 34.9207 434.06 32.5007Q434.17 30.0807 434.17 28.4307Q430.43 26.5607 425.425 25.6257Q420.42 24.6907 413.16 24.6907Q406.23 24.6907 399.575 26.8357Q392.92 28.9807 387.695 33.7657Q382.47 38.5507 379.335 46.1407Q376.2 53.7307 376.2 64.5107Q376.2 74.8507 378.895 82.3307Q381.59 89.8107 386.54 94.7057Q391.49 99.6007 398.53 101.966Q405.57 104.331 414.37 104.331Q417.12 104.331 420.255 103.726Q423.39 103.121 426.525 102.186Q429.66 101.251 432.465 100.096ZM516.12 103.011L540.54 103.011L540.54 99.8207Q535.7 97.8407 531.08 97.1807L538.3 77.0507L564.45 77.0507L571.89 97.1807Q569.69 97.6207 567.38 98.2807Q565.07 98.9407 562.87 99.8207L562.87 103.011L591.25 103.011L591.25 99.8207Q589.38 98.7207 587.235 98.1707Q585.09 97.6207 582.89 97.1807L555.06 24.6907L551.87 24.6907L524.04 97.1807Q520.08 98.0607 516.12 99.8207L516.12 103.011ZM130.35 98.3357Q128.04 97.7307 125.51 97.1807L125.51 68.9107L135.883 68.9107Q137.863 73.3107 139.788 77.2157Q141.713 81.1207 143.913 84.9157Q146.113 88.7107 148.643 92.3957Q151.173 96.0807 154.253 99.9307L158.433 103.011L171.82 103.011L171.82 100.261L165.83 97.0707Q160.22 89.8107 155.05 82.4407Q149.88 75.0707 145.15 67.5907Q152.432 65.2807 156.681 60.0007Q160.93 54.7207 160.93 46.6907Q160.93 40.9707 159.001 36.9007Q157.071 32.8307 153.653 30.1907Q150.234 27.5507 145.548 26.3407Q140.862 25.1307 135.46 25.1307Q130.498 25.1307 125.26 25.5707Q120.022 26.0107 115.612 26.0107L105.93 26.0107L105.93 29.2007Q107.69 29.9707 109.89 30.6857Q112.09 31.4007 114.95 31.9507L114.95 97.1807Q112.75 97.6207 110.55 98.1707Q108.35 98.7207 105.93 99.8207L105.93 103.011L134.86 103.011L134.86 99.8207Q132.66 98.9407 130.35 98.3357ZM468.82 97.1807Q471.35 97.7307 473.66 98.3357Q475.97 98.9407 478.17 99.8207L478.17 103.011L449.24 103.011L449.24 99.8207Q451.66 98.7207 453.86 98.1707Q456.06 97.6207 458.26 97.1807L458.26 31.9507Q455.4 31.4007 453.2 30.6857Q451 29.9707 449.24 29.2007L449.24 26.0107L458.922 26.0107Q463.332 26.0107 468.57 25.5707Q473.808 25.1307 478.77 25.1307Q484.172 25.1307 488.858 26.3407Q493.544 27.5507 496.963 30.1907Q500.381 32.8307 502.311 36.9007Q504.24 40.9707 504.24 46.6907Q504.24 54.7207 499.991 60.0007Q495.742 65.2807 488.46 67.5907Q493.19 75.0707 498.36 82.4407Q503.53 89.8107 509.14 97.0707L515.13 100.261L515.13 103.011L501.743 103.011L497.563 99.9307Q494.483 96.0807 491.953 92.3957Q489.423 88.7107 487.223 84.9157Q485.023 81.1207 483.098 77.2157Q481.173 73.3107 479.193 68.9107L468.82 68.9107L468.82 97.1807ZM674.96 99.8207L674.96 103.011L685.52 103.011C686.913 103.011 688.398 103.066 689.975 103.176Q692.34 103.341 694.65 103.506Q696.96 103.671 699.05 103.836Q701.14 104.001 702.79 104.001Q713.35 104.001 721.105 100.921Q728.86 97.8407 733.92 92.4507Q738.98 87.0607 741.455 79.6357Q743.93 72.2107 743.93 63.5207Q743.93 45.1507 733.865 35.1407Q723.8 25.1307 705.1 25.1307Q703.45 25.1307 700.975 25.2957Q698.5 25.4607 695.805 25.6257Q693.11 25.7907 690.58 25.9007Q688.05 26.0107 686.18 26.0107L674.96 26.0107L674.96 29.2007Q676.83 29.9707 679.14 30.6857Q681.45 31.4007 683.98 31.9507L683.98 97.1807Q678.81 98.0607 674.96 99.8207ZM82.94 30.9057Q85.25 31.6207 87.56 31.9507L77.44 75.8407L74.91 90.3607L74.69 90.3607L71.5 76.0607L55.55 26.0107L51.81 26.0107L36.96 76.0607L33.11 90.5807L32.89 90.5807L30.47 76.2807L19.58 31.9507Q22.11 31.4007 24.31 30.6857Q26.51 29.9707 28.6 29.2007L28.6 26.0107L0 26.0107L0 29.2007Q1.98 30.0807 4.07 30.7407Q6.16 31.4007 8.36 31.9507L27.83 104.331L34.54 103.011L51.92 44.4907L69.63 104.331L76.45 103.011L94.82 31.9507Q99 30.8507 102.74 29.2007L102.74 26.0107L78.1 26.0107L78.1 29.2007Q80.63 30.1907 82.94 30.9057ZM206.25 103.011L178.09 103.011L178.09 99.8207Q182.38 97.8407 186.89 97.1807L186.89 31.9507Q184.69 31.5107 182.49 30.7957Q180.29 30.0807 178.09 29.2007L178.09 26.0107L206.25 26.0107L206.25 29.2007Q204.27 30.0807 201.96 30.7957Q199.65 31.5107 197.45 31.9507L197.45 97.1807Q199.76 97.6207 202.07 98.2807Q204.38 98.9407 206.25 99.8207L206.25 103.011ZM230.12 103.011L261.03 103.011L261.03 99.8207Q258.72 98.8307 256.245 98.2807Q253.77 97.7307 250.91 97.1807L250.91 31.7307L267.63 31.7307L273.414 47.4607L276.306 47.4607Q276.64 45.1507 276.806 42.3457Q276.973 39.5407 277.141 36.6257Q277.308 33.7107 277.419 30.9607Q277.53 28.2107 277.53 26.0107L213.62 26.0107Q213.62 28.2107 213.73 31.0157Q213.84 33.8207 214.005 36.7357Q214.17 39.6507 214.39 42.4557Q214.61 45.2607 214.94 47.4607L217.69 47.4607L223.52 31.7307L240.35 31.7307L240.35 97.1807Q237.49 97.6207 235.015 98.2807Q232.54 98.9407 230.12 99.8207L230.12 103.011ZM334.95 26.0107Q334.84 30.4107 334.565 34.8657Q334.29 39.3207 333.74 43.8307L330.88 43.8307L326.37 31.7307L302.39 31.7307L302.39 60.8807L320.32 60.8807L324.61 52.7407L327.36 52.7407Q328.02 63.6307 327.36 74.9607L324.61 74.9607L320.32 66.6007L302.39 66.6007L302.39 97.2907L327.69 97.2907L333.08 84.0907L335.83 84.0907Q336.6 88.7107 336.93 93.4407Q337.26 98.1707 337.04 103.011L282.81 103.011L282.81 99.8207Q286.66 98.0607 291.83 97.1807L291.83 31.9507Q289.63 31.5107 287.32 30.7957Q285.01 30.0807 282.81 29.2007L282.81 26.0107L334.95 26.0107ZM644.82 26.0107L668.58 26.0107L668.58 29.2007Q663.96 32.2807 659.56 33.6007L659.56 104.331L653.29 104.331L613.36 43.7207L609.07 35.1407L608.74 35.1407L609.73 43.7207L609.73 95.9707Q614.24 97.1807 618.2 99.8207L618.2 103.011L594.44 103.011L594.44 99.8207Q596.42 98.6107 598.675 97.6757Q600.93 96.7407 603.46 95.9707L603.46 32.9407Q601.26 32.0607 599.115 31.0707Q596.97 30.0807 595.1 29.0907L595.1 26.0107L613.69 26.0107L648.34 78.2607L653.4 87.7207L653.84 87.7207L653.29 78.2607L653.29 33.6007Q650.98 32.6107 648.835 31.5107Q646.69 30.4107 644.82 29.2007L644.82 26.0107ZM128.645 30.9599Q130.35 30.8507 132.99 30.8507Q140.47 30.8508 145.2 34.6758Q149.93 38.5009 149.93 46.5859Q149.93 54.4543 145.475 59.2625Q141.02 64.0707 133.43 64.0707L125.51 64.0707L125.51 31.3973Q126.94 31.069 128.645 30.9599ZM476.3 30.8507Q473.66 30.8507 471.955 30.9599Q470.25 31.069 468.82 31.3973L468.82 64.0707L476.74 64.0707Q484.33 64.0707 488.785 59.2625Q493.24 54.4543 493.24 46.5859Q493.24 38.5009 488.51 34.6758Q483.78 30.8508 476.3 30.8507ZM698.06 30.9057Q700.7 30.8507 703.56 30.8507Q711.48 30.8507 716.98 33.9307Q722.48 37.0107 725.835 41.7957Q729.19 46.5807 730.675 52.3557Q732.16 58.1307 732.16 63.5207Q732.16 70.4507 730.62 76.7207Q729.08 82.9907 725.725 87.7757Q722.37 92.5607 717.09 95.4207Q711.81 98.2807 704.22 98.2807L702.075 98.2807Q700.59 98.2807 698.94 98.2257Q697.29 98.1707 695.86 98.1157Q694.43 98.0607 693.88 97.9507L693.88 31.2907Q695.42 30.9607 698.06 30.9057ZM562.59 71.3307L540.488 71.3307L548.914 48.2307L551.65 38.5507L551.868 38.5507L553.946 48.0107L562.59 71.3307Z" />
    </g>
  </g>
</svg>