<?xml version="1.0" encoding="UTF-8"?>
<svg xmlns="http://www.w3.org/2000/svg" xmlns:xlink="http://www.w3.org/1999/xlink" width="16pt" height="16pt" viewBox="0 0 16 16" version="1.1">
<g id="surface271986">
<path style=" stroke:none;fill-rule:nonzero;fill:rgb(100%,100%,100%);fill-opacity:1;" d="M 3.5 2 C 2.675781 2 2 2.675781 2 3.5 L 2 8 L 3 8 L 3 3.5 C 3 3.21875 3.21875 3 3.5 3 L 12.5 3 C 12.78125 3 13 3.21875 13 3.5 L 13 12.5 C 13 12.78125 12.78125 13 12.5 13 L 10 13 L 10 14 L 12.5 14 C 13.324219 14 14 13.324219 14 12.5 L 14 3.5 C 14 2.675781 13.324219 2 12.5 2 Z M 4 9 L 4 12.5 C 4 12.78125 3.78125 13 3.5 13 C 3.21875 13 3 12.78125 3 12.5 L 3 12 L 2 12 L 2 12.5 C 2 13.324219 2.675781 14 3.5 14 C 4.324219 14 5 13.324219 5 12.5 L 5 9 Z M 7.5 9 C 6.910156 9 6.566406 9.238281 6.378906 9.4375 C 5.96875 9.882812 6 10.472656 6 10.5 C 6 11.308594 6.738281 11.671875 7.273438 11.9375 C 7.699219 12.152344 8 12.3125 8 12.507812 C 8 12.511719 7.992188 12.75 7.859375 12.886719 C 7.832031 12.914062 7.746094 13 7.5 13 L 6.09375 13 C 6.152344 13.191406 6.246094 13.402344 6.429688 13.589844 C 6.613281 13.777344 6.949219 14 7.5 14 C 8.050781 14 8.386719 13.773438 8.574219 13.585938 C 9 13.152344 9 12.558594 9 12.5 C 9 11.679688 8.257812 11.3125 7.71875 11.042969 C 7.296875 10.835938 7.003906 10.671875 7.003906 10.46875 C 7.003906 10.464844 6.992188 10.242188 7.113281 10.117188 C 7.1875 10.039062 7.316406 10 7.5 10 L 8.914062 10 C 8.746094 9.496094 8.316406 9 7.5 9 Z M 7.5 9 "/>
</g>
</svg>
